<?xml version="1.0" encoding="utf-8"?>
<!-- Generator: Adobe Illustrator 21.1.0, SVG Export Plug-In . SVG Version: 6.00 Build 0)  -->
<svg version="1.1" id="ai_x5F_cc_x5F_app_x5F_RGB.svg"
	 xmlns="http://www.w3.org/2000/svg" xmlns:xlink="http://www.w3.org/1999/xlink" x="0px" y="0px" viewBox="0 0 240 234"
	 style="enable-background:new 0 0 240 234;" xml:space="preserve">
<style type="text/css">
	.st0{fill:#261300;}
	.st1{fill:#FF7C00;}
</style>
<g>
	<rect x="10" y="10" class="st0" width="220" height="214"/>
</g>
<g>
	<path class="st1" d="M0,0v234h240V0H0z M10,10h220v214H10V10z"/>
</g>
<path class="st1" d="M83.3,132.5l-7.9,30c-0.2,0.8-0.5,1-1.5,1H59.2c-1,0-1.2-0.3-1-1.5l28.4-99.4c0.5-1.8,0.8-3.4,1-8.3
	c0-0.7,0.3-1,0.8-1h21c0.7,0,1,0.2,1.2,1l31.8,107.9c0.2,0.8,0,1.3-0.8,1.3H125c-0.8,0-1.3-0.2-1.5-0.9l-8.2-30.1H83.3z
	 M111.1,116.3c-2.8-11.1-9.4-35.3-11.9-47H99c-2.1,11.7-7.4,31.5-11.6,47H111.1z M156.1,60.7c0-6.4,4.5-10.2,10.2-10.2
	c6.1,0,10.2,4.1,10.2,10.2c0,6.6-4.3,10.2-10.4,10.2C160.3,70.9,156.1,67.3,156.1,60.7z M157.2,83.4c0-0.8,0.3-1.2,1.2-1.2h15.7
	c0.8,0,1.2,0.3,1.2,1.2v78.9c0,0.8-0.2,1.2-1.2,1.2h-15.5c-1,0-1.3-0.5-1.3-1.3L157.2,83.4L157.2,83.4z"/>
</svg>
