<svg id="lrmobile_app_RGB.svg" xmlns="http://www.w3.org/2000/svg" viewBox="0 0 240 234"><defs><style>.cls-1{fill:#2e001f;}.cls-1,.cls-2{fill-rule:evenodd;}.cls-2{fill:#ff26b7;}.cls-3{fill:#ffd9f2;}</style></defs><title>Xd_mobile_app_RGB</title><path class="cls-1" d="M44.2,10.69c-27.3,0-33.6,16.25-33.6,43.57l0.11,132.6c0,27.33,8.52,36.45,35.81,36.45H192.83c27.29,0,36.46-9.12,36.46-36.44V49.24c0-27.32-10.19-38.55-37.48-38.55H44.2Z" transform="translate(0 0)"/><path class="cls-2" d="M193.44,11C212.4,11,229,26.56,229,45.49V186.64c0,18.9-15.35,36.36-34.29,36.36H45.29C26.35,223,11,206.9,11,188L11,47.49C11,28.61,26.32,11,45.23,11H193.44ZM0,43.05V191.22C0,214.85,18.21,234,41.88,234H197.14A42.82,42.82,0,0,0,240,191.22V42.78A42.82,42.82,0,0,0,197.14,0H41.88C18.21,0,0,19.15,0,42.78v0.27Z" transform="translate(0 0)"/><path class="cls-3" d="M175,100.79a14.37,14.37,0,0,0-5.8-1c-12.55,0-22,9.66-22,25.76,0,18.35,9.57,25.76,20.84,25.76a18.83,18.83,0,0,0,6.92-1.13V100.79Zm-45.79,25.59c0-23.34,16-41.53,40.64-41.53,2.09,0,3.22,0,5.15.16V59a0.93,0.93,0,0,1,1-1H192c0.81,0,1,.32,1,0.81v91.4a74.15,74.15,0,0,0,.48,9.82,0.92,0.92,0,0,1-.64,1.13,59.29,59.29,0,0,1-25.6,5.79C145.66,167,129.21,153.59,129.21,126.38ZM97.08,110.12l28,53.27c0.48,0.81.16,1.61-.64,1.61H106.06a2,2,0,0,1-2.1-1.29c-6.43-13.2-12.87-25.9-19.64-40.06H84.16c-6,13.36-12.55,27-19,40.22A1.89,1.89,0,0,1,63.39,165H45.81c-1,0-1.13-.8-0.64-1.45l27.37-51.66L46.13,59.45A0.84,0.84,0,0,1,46.78,58H65a1.49,1.49,0,0,1,1.78,1.13c6.27,13.2,12.71,26.36,18.67,39.72h0.16c5.8-13.2,12.24-26.52,18.35-39.56,0.49-.81.81-1.29,1.78-1.29h17.1c0.8,0,1.12.64,0.64,1.45Z" transform="translate(0 0)"/></svg>
